<svg width="64" height="64" viewBox="0 0 64 64" fill="none" xmlns="http://www.w3.org/2000/svg">
<path fill-rule="evenodd" clip-rule="evenodd" d="M2.03486 39.5735C2.36454 40.4954 2.8805 41.3345 3.54856 42.0354L14.9854 56.6678C19.2103 61.6124 17.4544 60.9952 25.6553 60.9952H40.3214C43.4027 60.9952 44.58 61.4598 46.5175 59.6082C48.1658 58.0409 51.321 53.4709 53.0971 51.2864C54.1802 49.9411 55.2095 48.5125 56.3465 47.077C63.5854 38.0062 63.0741 41.0576 59.273 25.2878C56.2725 12.9022 58.1495 13.1935 51.6305 10.1491L36.5742 2.75659C30.6203 -0.0173374 31.6563 0.724688 26.0724 3.37379C22.7894 4.93412 19.0018 6.66089 15.9206 8.31831C12.8393 9.97573 8.06948 10.9951 7.1209 14.3724C6.25977 17.4376 1.55047 37.6803 2.03486 39.5735Z" fill="#4C809E"/>
<path fill-rule="evenodd" clip-rule="evenodd" d="M33.2979 11.1339C38.3214 11.4464 43.06 13.6444 46.6186 17.3127C50.1772 20.9809 52.3095 25.8654 52.6127 31.0437H50.285C50.0802 27.8298 49.0745 24.7246 47.3652 22.0284L41.0481 30.1144C39.8505 31.6193 38.4579 32.0076 36.9241 31.5014C35.2893 30.9535 34.0918 29.3585 32.7193 28.034C33.0785 27.7511 33.472 27.518 33.8899 27.3405L34.159 27.5902C35.1547 28.5125 36.1773 29.8856 37.4488 30.2809C37.8465 30.4203 38.2793 30.4106 38.6707 30.2532C39.0621 30.0959 39.387 29.8011 39.5882 29.4209L46.457 20.7524C44.8807 18.6626 42.8933 16.9403 40.6254 15.6985C38.3574 14.4566 35.8602 13.7235 33.2979 13.5472V11.1339ZM29.9341 27.5694C28.9384 28.4917 27.9159 29.8648 26.6443 30.2601C26.4256 30.3387 26.1938 30.3712 25.9627 30.3558C25.7316 30.3403 25.5058 30.2771 25.2988 30.1699C25.2096 30.6271 25.1556 31.0909 25.1374 31.5569C25.8141 31.7463 26.5298 31.727 27.196 31.5014C30.2301 30.482 31.7573 25.8495 35.7198 26.1755C36.4914 26.2227 37.2318 26.5059 37.8465 26.9888C38.4612 27.4718 38.9224 28.1326 39.1711 28.887L40.2407 27.5347C39.8309 26.7383 39.2284 26.0645 38.4918 25.5785C37.7552 25.0925 36.9093 24.8109 36.036 24.7608C33.1432 24.5804 31.9524 25.7663 29.9812 27.6179L29.9341 27.5694ZM39.6689 32.0839C39.6689 32.2295 39.6689 32.3821 39.6689 32.5277C39.8849 32.6373 40.0919 32.7649 40.2878 32.9092L40.3686 32.9646L40.4291 33.034L41.1557 33.9355C41.1557 33.7691 41.2095 33.6026 41.2297 33.4293C41.3171 32.5972 41.3171 31.7579 41.2297 30.9258C40.7903 31.4192 40.2566 31.8135 39.6622 32.0839H39.6689ZM39.0769 35.8703L39.1307 35.9119L40.0726 37.0492C39.3467 38.3364 38.1611 39.2797 36.7693 39.6775C35.9835 39.9168 35.1665 40.0291 34.3474 40.0104C32.5511 39.9272 31.4075 38.8176 29.7928 37.1949C28.8308 36.2171 27.7208 34.6567 26.3012 34.6082C25.9911 34.6018 25.6833 34.6657 25.3997 34.7954C25.2671 34.1955 25.1816 33.5856 25.1441 32.9716C25.4709 32.8443 25.8173 32.7785 26.1667 32.7774C26.934 32.7955 27.6733 33.0788 28.2657 33.5818C29.3959 34.6082 30.284 35.5375 31.2662 36.4598C33.2239 38.3322 34.5694 39.6914 37.3681 37.9716C38.1507 37.4929 38.7584 36.7617 39.0971 35.8911L39.0769 35.8703ZM22.5876 35.4612L16.7952 42.6387C15.0764 39.9452 14.0614 36.8399 13.8485 33.6234H11.5073C11.8169 38.7968 13.952 43.6746 17.51 47.3371C21.068 50.9996 25.803 53.1937 30.8222 53.5056V51.0922C28.2553 50.9179 25.7537 50.1836 23.4828 48.9379C21.212 47.6921 19.2237 45.9634 17.6496 43.8662L23.2133 36.9799C22.9702 36.4922 22.7677 35.9841 22.6078 35.4612H22.5876ZM23.0384 27.5902C22.7798 28.1429 22.5769 28.7215 22.4329 29.3169L16.7548 22.07C15.0552 24.7547 14.0543 27.845 13.8485 31.0437H11.5073C11.8106 25.8654 13.9429 20.9809 17.5015 17.3127C21.0601 13.6444 25.7987 11.4464 30.8222 11.1339V13.5472C28.2564 13.7263 25.7564 14.4627 23.4862 15.708C21.216 16.9534 19.2269 18.6796 17.6496 20.7732L23.0316 27.5902H23.0384ZM30.0283 26.3142C29.4913 26.1543 28.9302 26.0979 28.3733 26.1477C25.2114 26.4112 24.2628 29.6151 24.4242 32.6664C24.5319 34.7469 24.8817 36.8273 26.7318 37.9716C28.0773 38.7899 29.0663 38.9147 29.961 38.6096C30.3527 38.9949 30.7661 39.3561 31.1989 39.6914C30.7383 39.8841 30.2491 39.9944 29.7525 40.0173C28.9333 40.0363 28.1163 39.924 27.3306 39.6845C24.7135 38.9494 23.2133 36.439 22.8635 33.4431C22.3723 29.2823 24.135 24.9688 28.0639 24.7261C29.1527 24.6164 30.2501 24.8129 31.2393 25.2947C30.8185 25.6173 30.4143 25.9622 30.0283 26.328V26.3142ZM32.6655 36.6193L32.8337 36.4598C33.7957 35.5375 34.704 34.6082 35.8342 33.5818C36.4252 33.0818 37.162 32.8009 37.9265 32.7843C38.6342 32.8057 39.3191 33.0474 39.8909 33.4778L47.3316 42.5971C49.0553 39.9056 50.0728 36.7995 50.285 33.5818H52.6262C52.3258 38.7648 50.193 43.6545 46.6313 47.326C43.0696 50.9974 38.326 53.1959 33.2979 53.5056V51.0922C35.8657 50.9145 38.3678 50.1781 40.6394 48.9314C42.911 47.6847 44.9007 45.956 46.4772 43.8592L39.6353 35.4126C39.148 34.9176 38.4961 34.6324 37.8121 34.6151C36.3993 34.6637 35.2825 36.224 34.3205 37.2018L33.9437 37.5832C33.4854 37.3199 33.0625 36.9958 32.6857 36.6193H32.6655Z" fill="white"/>
<circle cx="32" cy="32" r="31.5" stroke="white"/>
</svg>
