<svg width="160" height="160" viewBox="0 0 160 160" fill="none" xmlns="http://www.w3.org/2000/svg">
<circle cx="80" cy="80" r="79.5" fill="#595A5C" stroke="white"/>
<path d="M68.6479 76.7606H130.845V84.5352H68.6479V76.7606Z" fill="white"/>
<path d="M121.515 97.9465L116.721 93.4112L130.586 80.4535L116.721 67.4958L121.515 62.9605L137.842 78.2507C138.149 78.5435 138.393 78.8954 138.559 79.2851C138.726 79.6749 138.812 80.0944 138.812 80.5183C138.812 80.9422 138.726 81.3617 138.559 81.7514C138.393 82.1412 138.149 82.4931 137.842 82.7859V82.7859L121.515 97.9465Z" fill="white"/>
<path d="M22 34H67.3521V41.7746H22V34Z" fill="white"/>
<path d="M22 76.7606H67.3521V84.5352H22V76.7606Z" fill="white"/>
<path d="M22 118.225H67.3521V126H22V118.225Z" fill="white"/>
<path d="M68.6479 35.2958V126H60.8733V35.2958H68.6479Z" fill="white"/>
</svg>
