<svg width="160" height="160" viewBox="0 0 160 160" fill="none" xmlns="http://www.w3.org/2000/svg">
<circle cx="80" cy="80" r="79.5" fill="#595A5C" stroke="white"/>
<path d="M22.9528 76.3222H136.017V83.6555H22.9528V76.3222Z" fill="white"/>
<path d="M126.551 96L121.686 91.7222L135.885 79.5L121.686 67.2778L126.551 63L143.379 77.4222C143.69 77.6984 143.937 78.0303 144.107 78.3979C144.276 78.7656 144.363 79.1613 144.363 79.5611C144.363 79.9609 144.276 80.3566 144.107 80.7243C143.937 81.0919 143.69 81.4238 143.379 81.7L126.551 96Z" fill="white"/>
<path d="M33.8122 63L38.6765 67.2778L24.4778 79.5L38.6765 91.7222L33.8122 96L16.9841 81.5778C16.673 81.3016 16.4255 80.9697 16.2563 80.602C16.0872 80.2344 16 79.8387 16 79.4389C16 79.039 16.0872 78.6434 16.2563 78.2757C16.4255 77.9081 16.673 77.5762 16.9841 77.3L33.8122 63Z" fill="white"/>
</svg>
