<svg width="160" height="160" viewBox="0 0 160 160" fill="none" xmlns="http://www.w3.org/2000/svg">
<circle cx="80" cy="80" r="79.5" fill="#595A5C" stroke="white"/>
<path d="M25 76.2627H125.737V83.5704H25V76.2627Z" fill="white"/>
<path d="M118.674 56.8849L114.34 52.622L126.873 40.4425L114.34 28.2629L118.674 24L133.492 38.3719C133.769 38.6471 133.989 38.9779 134.14 39.3442C134.291 39.7106 134.368 40.1049 134.368 40.5034C134.368 40.9018 134.291 41.2961 134.14 41.6625C133.989 42.0288 133.769 42.3596 133.492 42.6348L118.674 56.8849Z" fill="white"/>
<path d="M117.303 95.7865L112.969 91.5237L125.503 79.3441L112.969 67.1645L117.303 62.9016L132.063 77.2735C132.34 77.5487 132.56 77.8795 132.711 78.2459C132.862 78.6122 132.939 79.0065 132.939 79.405C132.939 79.8034 132.862 80.1977 132.711 80.5641C132.56 80.9304 132.34 81.2612 132.063 81.5364V81.5364L117.303 95.7865Z" fill="white"/>
<path d="M117.303 135.76L112.969 131.497L125.503 119.318L112.969 107.138L117.303 102.875L132.063 117.247C132.34 117.522 132.56 117.853 132.711 118.219C132.862 118.586 132.939 118.98 132.939 119.378C132.939 119.777 132.862 120.171 132.711 120.538C132.56 120.904 132.34 121.235 132.063 121.51V121.51L117.303 135.76Z" fill="white"/>
<path d="M87.0823 37.2879H128.08V44.5957H87.0823V37.2879Z" fill="white"/>
<path d="M84.7396 115.237H125.737V122.545H84.7396V115.237Z" fill="white"/>
<path d="M91.7677 37.2879V122.545H84.7396V37.2879H91.7677Z" fill="white"/>
</svg>
