<svg width="160" height="160" viewBox="0 0 160 160" fill="none" xmlns="http://www.w3.org/2000/svg">
<circle cx="80" cy="80" r="79.5" fill="#595A5C" stroke="white"/>
<path d="M66.7958 76.2104H127.111V83.5496H66.7958V76.2104Z" fill="white"/>
<path d="M119.837 56.7862L115.374 52.505L128.281 40.2731L115.374 28.0412L119.837 23.76L135.097 38.1937C135.382 38.4701 135.61 38.8022 135.765 39.1702C135.92 39.5381 136 39.9341 136 40.3343C136 40.7344 135.92 41.1304 135.765 41.4983C135.61 41.8662 135.382 42.1984 135.097 42.4748L119.837 56.7862Z" fill="white"/>
<path d="M118.426 95.8549L113.963 91.5737L126.87 79.3418L113.963 67.1099L118.426 62.8287L133.625 77.2624C133.911 77.5388 134.138 77.871 134.293 78.2389C134.448 78.6068 134.528 79.0028 134.528 79.403C134.528 79.8031 134.448 80.1991 134.293 80.5671C134.138 80.935 133.911 81.2672 133.625 81.5436V81.5436L118.426 95.8549Z" fill="white"/>
<path d="M118.426 136L113.963 131.719L126.87 119.487L113.963 107.255L118.426 102.974L133.625 117.408C133.911 117.684 134.138 118.016 134.293 118.384C134.448 118.752 134.528 119.148 134.528 119.548C134.528 119.948 134.448 120.344 134.293 120.712C134.138 121.08 133.911 121.412 133.625 121.689V121.689L118.426 136Z" fill="white"/>
<path d="M23.3685 37.0683H65.5894V44.4075H23.3685V37.0683Z" fill="white"/>
<path d="M87.303 37.0683H129.524V44.4075H87.303V37.0683Z" fill="white"/>
<path d="M84.8904 115.353H127.111V122.692H84.8904V115.353Z" fill="white"/>
<path d="M23.3685 76.2104H65.5894V83.5496H23.3685V76.2104Z" fill="white"/>
<path d="M23.3685 115.353H65.5894V122.692H23.3685V115.353Z" fill="white"/>
<path d="M66.7957 37.0683V122.692H59.5579V37.0683H66.7957Z" fill="white"/>
<path d="M92.1282 37.0683V122.692H84.8904V37.0683H92.1282Z" fill="white"/>
</svg>
