<svg width="64" height="64" viewBox="0 0 64 64" fill="none" xmlns="http://www.w3.org/2000/svg">
<path fill-rule="evenodd" clip-rule="evenodd" d="M2.03486 39.5433C2.36454 40.4645 2.8805 41.303 3.54856 42.0032L14.9854 56.6242C19.2103 61.5649 17.4544 60.9482 25.6553 60.9482H40.3214C43.4027 60.9482 44.58 61.4124 46.5175 59.5623C48.1658 57.9962 51.321 53.4298 53.0971 51.247C54.1802 49.9027 55.2095 48.4753 56.3465 47.0409C63.5854 37.9773 63.0741 41.0262 59.273 25.2688C56.2725 12.8929 58.1495 13.1839 51.6305 10.1419L36.5742 2.75521C30.6203 -0.0165406 31.6563 0.724903 26.0724 3.37193C22.7894 4.93104 19.0018 6.65645 15.9206 8.31258C12.8393 9.9687 8.06948 10.9873 7.1209 14.3619C6.25977 17.4247 1.55047 37.6516 2.03486 39.5433Z" fill="#4C809E"/>
<path fill-rule="evenodd" clip-rule="evenodd" d="M4.03254 38.9737C4.34024 39.8335 4.8218 40.6161 5.44532 41.2697L16.1197 54.9159C20.063 59.5272 18.4241 58.9516 26.0783 58.9516H39.7667C42.6425 58.9516 43.7413 59.3849 45.5497 57.6581C47.0881 56.1965 50.0329 51.9345 51.6906 49.8972C52.7015 48.6425 53.6622 47.3103 54.7234 45.9715C61.4797 37.5121 61.0024 40.3578 57.4548 25.6509C54.6543 14.1 56.4062 14.3717 50.3218 11.5325L36.2692 4.6382C30.7123 2.05123 31.6792 2.74324 26.4676 5.2138C23.4034 6.66897 19.8683 8.27936 16.9925 9.82507C14.1167 11.3708 9.66485 12.3215 8.7795 15.4711C7.97579 18.3297 3.58044 37.2081 4.03254 38.9737Z" fill="white"/>
<path fill-rule="evenodd" clip-rule="evenodd" d="M5.03137 38.689C5.32809 39.518 5.79245 40.2727 6.39371 40.9029L16.6869 54.0618C20.4893 58.5084 18.909 57.9533 26.2898 57.9533H39.4893C42.2624 57.9533 43.322 58.3712 45.0658 56.7061C46.5492 55.2966 49.3889 51.1868 50.9874 49.2223C51.9622 48.0125 52.8886 46.7277 53.9118 45.4368C60.4268 37.2795 59.9666 40.0236 56.5457 25.8419C53.8452 14.7036 55.5345 14.9655 49.6674 12.2277L36.1168 5.57969C30.7583 3.08511 31.6907 3.75241 26.6652 6.13473C23.7105 7.53793 20.3016 9.09081 17.5285 10.5813C14.7554 12.0718 10.4625 12.9886 9.60881 16.0257C8.83379 18.7822 4.59543 36.9864 5.03137 38.689Z" fill="#4C809E"/>
<rect x="35" y="27" width="13" height="12" fill="#4C809E" stroke="white" stroke-width="2"/>
<path d="M33.7071 33.7071C34.0976 33.3166 34.0976 32.6834 33.7071 32.2929L27.3431 25.9289C26.9526 25.5384 26.3195 25.5384 25.9289 25.9289C25.5384 26.3195 25.5384 26.9526 25.9289 27.3431L31.5858 33L25.9289 38.6569C25.5384 39.0474 25.5384 39.6805 25.9289 40.0711C26.3195 40.4616 26.9526 40.4616 27.3431 40.0711L33.7071 33.7071ZM10 34H33V32H10V34Z" fill="white"/>
<circle cx="32" cy="32" r="31.5" stroke="white"/>
</svg>
